<svg xmlns="http://www.w3.org/2000/svg" xmlns:xlink="http://www.w3.org/1999/xlink" width="1920" zoomAndPan="magnify" viewBox="0 0 1440 809.999993" height="1080" preserveAspectRatio="xMidYMid meet" version="1.0"><defs><clipPath id="65fe75aaf5"><path d="M 0 0 L 292.359375 0 L 292.359375 717.878906 L 0 717.878906 Z M 0 0 " clip-rule="nonzero"/></clipPath><clipPath id="0825dcf6fd"><path d="M -106.640625 717.816406 C -0.00390625 717.816406 100.121094 676.261719 175.464844 600.917969 C 250.808594 525.574219 292.359375 425.449219 292.359375 318.941406 C 292.359375 212.433594 250.808594 112.183594 175.464844 36.835938 C 100.121094 -38.507812 -0.132812 -80.058594 -106.640625 -80.058594 C -213.273438 -80.058594 -313.398438 -38.507812 -388.867188 36.835938 C -464.210938 112.183594 -505.765625 212.433594 -505.765625 318.941406 C -505.765625 425.449219 -464.210938 525.699219 -388.867188 601.042969 C -313.398438 676.390625 -213.273438 717.816406 -106.640625 717.816406 Z M -106.640625 -73.800781 C 109.882812 -73.800781 286.101562 102.417969 286.101562 318.941406 C 286.101562 535.460938 109.882812 711.683594 -106.640625 711.683594 C -323.160156 711.683594 -499.382812 535.460938 -499.382812 318.941406 C -499.382812 102.417969 -323.285156 -73.800781 -106.640625 -73.800781 Z M -106.640625 -73.800781 " clip-rule="nonzero"/></clipPath><clipPath id="0fb09542cf"><path d="M 0 0 L 553.714844 0 L 553.714844 234.140625 L 0 234.140625 Z M 0 0 " clip-rule="nonzero"/></clipPath><clipPath id="16155bcdbb"><path d="M 154.714844 234.078125 C 48.078125 234.078125 -52.046875 192.527344 -127.390625 117.183594 C -202.734375 41.839844 -244.285156 -58.285156 -244.285156 -164.796875 C -244.285156 -271.304688 -202.734375 -371.554688 -127.390625 -446.898438 C -52.046875 -522.242188 48.203125 -563.796875 154.714844 -563.796875 C 261.347656 -563.796875 361.472656 -522.242188 436.941406 -446.898438 C 512.285156 -371.554688 553.839844 -271.304688 553.839844 -164.796875 C 553.839844 -58.285156 512.285156 41.964844 436.941406 117.308594 C 361.472656 192.652344 261.347656 234.078125 154.714844 234.078125 Z M 154.714844 -557.539062 C -61.808594 -557.539062 -238.027344 -381.316406 -238.027344 -164.796875 C -238.027344 51.726562 -61.808594 227.945312 154.714844 227.945312 C 371.234375 227.945312 547.457031 51.726562 547.457031 -164.796875 C 547.457031 -381.316406 371.359375 -557.539062 154.714844 -557.539062 Z M 154.714844 -557.539062 " clip-rule="nonzero"/></clipPath><clipPath id="9fb15025ab"><path d="M 1142.398438 351.285156 L 1440 351.285156 L 1440 810 L 1142.398438 810 Z M 1142.398438 351.285156 " clip-rule="nonzero"/></clipPath><clipPath id="80d47b0b8a"><path d="M 1541.269531 351.21875 C 1647.902344 351.21875 1748.027344 392.773438 1823.375 468.117188 C 1898.71875 543.460938 1940.269531 643.585938 1940.269531 750.09375 C 1940.269531 856.605469 1898.71875 956.855469 1823.375 1032.199219 C 1748.027344 1107.542969 1647.777344 1149.09375 1541.269531 1149.09375 C 1434.636719 1149.09375 1334.511719 1107.542969 1259.042969 1032.199219 C 1183.695312 956.855469 1142.144531 856.605469 1142.144531 750.09375 C 1142.144531 643.585938 1183.695312 543.335938 1259.042969 467.992188 C 1334.511719 392.648438 1434.636719 351.21875 1541.269531 351.21875 Z M 1541.269531 1142.835938 C 1757.792969 1142.835938 1934.011719 966.617188 1934.011719 750.09375 C 1934.011719 533.574219 1757.792969 357.351562 1541.269531 357.351562 C 1324.75 357.351562 1148.527344 533.574219 1148.527344 750.09375 C 1148.527344 966.617188 1324.625 1142.835938 1541.269531 1142.835938 Z M 1541.269531 1142.835938 " clip-rule="nonzero"/></clipPath><clipPath id="5641a646ee"><path d="M 1092.226562 0 L 1440 0 L 1440 458.707031 L 1092.226562 458.707031 Z M 1092.226562 0 " clip-rule="nonzero"/></clipPath><clipPath id="fad5350d52"><path d="M 1890.164062 59.707031 C 1890.164062 166.339844 1848.613281 266.464844 1773.265625 341.808594 C 1697.921875 417.15625 1597.796875 458.707031 1491.289062 458.707031 C 1384.78125 458.707031 1284.53125 417.15625 1209.183594 341.808594 C 1133.839844 266.464844 1092.289062 166.214844 1092.289062 59.707031 C 1092.289062 -46.925781 1133.839844 -147.050781 1209.183594 -222.523438 C 1284.53125 -297.867188 1384.78125 -339.417969 1491.289062 -339.417969 C 1597.796875 -339.417969 1698.046875 -297.867188 1773.390625 -222.523438 C 1848.738281 -147.050781 1890.164062 -46.925781 1890.164062 59.707031 Z M 1098.546875 59.707031 C 1098.546875 276.226562 1274.765625 452.449219 1491.289062 452.449219 C 1707.808594 452.449219 1884.03125 276.226562 1884.03125 59.707031 C 1884.03125 -156.816406 1707.808594 -333.035156 1491.289062 -333.035156 C 1274.765625 -333.035156 1098.546875 -156.941406 1098.546875 59.707031 Z M 1098.546875 59.707031 " clip-rule="nonzero"/></clipPath></defs><rect x="-144" width="1728" fill="#ffffff" y="-80.999999" height="971.999992" fill-opacity="1"/><rect x="-144" width="1728" fill="#ffffff" y="-80.999999" height="971.999992" fill-opacity="1"/><rect x="-144" width="1728" fill="#3d3935" y="-80.999999" height="971.999992" fill-opacity="1"/><g clip-path="url(#65fe75aaf5)"><g clip-path="url(#0825dcf6fd)"><path fill="#ef3a5d" d="M 292.359375 0 L 292.359375 717.816406 L 0 717.816406 L 0 0 Z M 292.359375 0 " fill-opacity="1" fill-rule="nonzero"/></g></g><g clip-path="url(#0fb09542cf)"><g clip-path="url(#16155bcdbb)"><path fill="#ef3a5d" d="M 0 0 L 0 234.078125 L 553.714844 234.078125 L 553.714844 0 Z M 0 0 " fill-opacity="1" fill-rule="nonzero"/></g></g><g clip-path="url(#9fb15025ab)"><g clip-path="url(#80d47b0b8a)"><path fill="#ef3a5d" d="M 1440 810 L 1440 351.285156 L 1142.398438 351.285156 L 1142.398438 810 Z M 1440 810 " fill-opacity="1" fill-rule="nonzero"/></g></g><g clip-path="url(#5641a646ee)"><g clip-path="url(#fad5350d52)"><path fill="#ef3a5d" d="M 1092.289062 458.707031 L 1440 458.707031 L 1440 0 L 1092.289062 0 Z M 1092.289062 458.707031 " fill-opacity="1" fill-rule="nonzero"/></g></g></svg>